<svg xmlns="http://www.w3.org/2000/svg" xmlns:xlink="http://www.w3.org/1999/xlink" contentStyleType="text/css" data-diagram-type="CLASS" height="375px" preserveAspectRatio="none" style="width:492px;height:375px;background:#FFFFFF;" version="1.1" viewBox="0 0 492 375" width="492px" zoomAndPan="magnify"><defs/><g><!--class Calculator--><g class="entity" data-entity="Calculator" data-source-line="1" data-uid="ent0002" id="entity_Calculator"><rect fill="#F1F1F1" height="80.5938" rx="2.5" ry="2.5" style="stroke:#181818;stroke-width:0.5;" width="292" x="100.19" y="288.19"/><ellipse cx="206.3931" cy="304.19" fill="#ADD1B2" rx="11" ry="11" style="stroke:#181818;stroke-width:1;"/><path d="M209.3619,309.8306 Q208.7838,310.1275 208.1431,310.2681 Q207.5025,310.4244 206.7994,310.4244 Q204.2994,310.4244 202.9713,308.7837 Q201.6588,307.1275 201.6588,304.0025 Q201.6588,300.8775 202.9713,299.2212 Q204.2994,297.565 206.7994,297.565 Q207.5025,297.565 208.1431,297.7212 Q208.7994,297.8775 209.3619,298.1744 L209.3619,300.8931 Q208.7369,300.315 208.1431,300.0494 Q207.5494,299.7681 206.9244,299.7681 Q205.5806,299.7681 204.8931,300.8462 Q204.2056,301.9087 204.2056,304.0025 Q204.2056,306.0962 204.8931,307.1744 Q205.5806,308.2369 206.9244,308.2369 Q207.5494,308.2369 208.1431,307.9712 Q208.7369,307.69 209.3619,307.1119 L209.3619,309.8306 Z " fill="#000000"/><text fill="#000000" font-family="sans-serif" font-size="14" lengthAdjust="spacing" textLength="71.0938" x="226.8931" y="309.0367">Calculator</text><line style="stroke:#181818;stroke-width:0.5;" x1="101.19" x2="391.19" y1="320.19" y2="320.19"/><line style="stroke:#181818;stroke-width:0.5;" x1="101.19" x2="391.19" y1="328.19" y2="328.19"/><ellipse cx="111.19" cy="341.8384" fill="#84BE84" rx="3" ry="3" style="stroke:#038048;stroke-width:1;"/><text fill="#000000" font-family="sans-serif" font-size="14" lengthAdjust="spacing" textLength="234.2881" x="120.19" y="345.1851">add(a: double, b: double): double</text><ellipse cx="111.19" cy="358.1353" fill="#84BE84" rx="3" ry="3" style="stroke:#038048;stroke-width:1;"/><text fill="#000000" font-family="sans-serif" font-size="14" lengthAdjust="spacing" textLength="266" x="120.19" y="361.482">subtract(a: double, b: double): double</text></g><!--class CalculatorController--><g class="entity" data-entity="CalculatorController" data-source-line="6" data-uid="ent0003" id="entity_CalculatorController"><rect fill="#F1F1F1" height="80.5938" rx="2.5" ry="2.5" style="stroke:#181818;stroke-width:0.5;" width="478.3887" x="7" y="147.59"/><ellipse cx="171.811" cy="163.59" fill="#ADD1B2" rx="11" ry="11" style="stroke:#181818;stroke-width:1;"/><path d="M174.7798,169.2306 Q174.2017,169.5275 173.561,169.6681 Q172.9204,169.8244 172.2173,169.8244 Q169.7173,169.8244 168.3892,168.1837 Q167.0767,166.5275 167.0767,163.4025 Q167.0767,160.2775 168.3892,158.6212 Q169.7173,156.965 172.2173,156.965 Q172.9204,156.965 173.561,157.1212 Q174.2173,157.2775 174.7798,157.5744 L174.7798,160.2931 Q174.1548,159.715 173.561,159.4494 Q172.9673,159.1681 172.3423,159.1681 Q170.9985,159.1681 170.311,160.2462 Q169.6235,161.3087 169.6235,163.4025 Q169.6235,165.4962 170.311,166.5744 Q170.9985,167.6369 172.3423,167.6369 Q172.9673,167.6369 173.561,167.3712 Q174.1548,167.09 174.7798,166.5119 L174.7798,169.2306 Z " fill="#000000"/><text fill="#000000" font-family="sans-serif" font-size="14" lengthAdjust="spacing" textLength="140.2666" x="192.311" y="168.4367">CalculatorController</text><line style="stroke:#181818;stroke-width:0.5;" x1="8" x2="484.3887" y1="179.59" y2="179.59"/><rect fill="none" height="6" style="stroke:#C82930;stroke-width:1;" width="6" x="15" y="190.2384"/><text fill="#000000" font-family="sans-serif" font-size="14" lengthAdjust="spacing" textLength="149.2764" x="27" y="196.5851">calculator: Calculator</text><line style="stroke:#181818;stroke-width:0.5;" x1="8" x2="484.3887" y1="203.8869" y2="203.8869"/><ellipse cx="18" cy="217.5353" fill="#84BE84" rx="3" ry="3" style="stroke:#038048;stroke-width:1;"/><text fill="#000000" font-family="sans-serif" font-size="14" lengthAdjust="spacing" textLength="452.3887" x="27" y="220.882">handleOperation(operation: String, a: double, b: double): double</text></g><!--class CalculatorView--><g class="entity" data-entity="CalculatorView" data-source-line="11" data-uid="ent0004" id="entity_CalculatorView"><rect fill="#F1F1F1" height="80.5938" rx="2.5" ry="2.5" style="stroke:#181818;stroke-width:0.5;" width="242.5283" x="124.93" y="7"/><ellipse cx="189.6321" cy="23" fill="#ADD1B2" rx="11" ry="11" style="stroke:#181818;stroke-width:1;"/><path d="M192.6009,28.6406 Q192.0228,28.9375 191.3821,29.0781 Q190.7415,29.2344 190.0384,29.2344 Q187.5384,29.2344 186.2103,27.5938 Q184.8978,25.9375 184.8978,22.8125 Q184.8978,19.6875 186.2103,18.0313 Q187.5384,16.375 190.0384,16.375 Q190.7415,16.375 191.3821,16.5313 Q192.0384,16.6875 192.6009,16.9844 L192.6009,19.7031 Q191.9759,19.125 191.3821,18.8594 Q190.7884,18.5781 190.1634,18.5781 Q188.8196,18.5781 188.1321,19.6563 Q187.4446,20.7188 187.4446,22.8125 Q187.4446,24.9063 188.1321,25.9844 Q188.8196,27.0469 190.1634,27.0469 Q190.7884,27.0469 191.3821,26.7813 Q191.9759,26.5 192.6009,25.9219 L192.6009,28.6406 Z " fill="#000000"/><text fill="#000000" font-family="sans-serif" font-size="14" lengthAdjust="spacing" textLength="104.624" x="210.1321" y="27.8467">CalculatorView</text><line style="stroke:#181818;stroke-width:0.5;" x1="125.93" x2="366.4583" y1="39" y2="39"/><rect fill="none" height="6" style="stroke:#C82930;stroke-width:1;" width="6" x="132.93" y="49.6484"/><text fill="#000000" font-family="sans-serif" font-size="14" lengthAdjust="spacing" textLength="216.5283" x="144.93" y="55.9951">controller: CalculatorController</text><line style="stroke:#181818;stroke-width:0.5;" x1="125.93" x2="366.4583" y1="63.2969" y2="63.2969"/><ellipse cx="135.93" cy="76.9453" fill="#84BE84" rx="3" ry="3" style="stroke:#038048;stroke-width:1;"/><text fill="#000000" font-family="sans-serif" font-size="14" lengthAdjust="spacing" textLength="82.3252" x="144.93" y="80.292">start(): void</text></g><!--link CalculatorController to Calculator--><g class="link" data-entity-1="CalculatorController" data-entity-2="Calculator" data-source-line="16" data-uid="lnk5" id="link_CalculatorController_Calculator"><path codeLine="16" d="M246.19,228.6 C246.19,247.16 246.19,263.2 246.19,281.76" fill="none" id="CalculatorController-to-Calculator" style="stroke:#181818;stroke-width:1;"/><polygon fill="#181818" points="246.19,287.76,250.19,278.76,246.19,282.76,242.19,278.76,246.19,287.76" style="stroke:#181818;stroke-width:1;"/></g><!--link CalculatorView to CalculatorController--><g class="link" data-entity-1="CalculatorView" data-entity-2="CalculatorController" data-source-line="17" data-uid="lnk6" id="link_CalculatorView_CalculatorController"><path codeLine="17" d="M246.19,88.01 C246.19,106.57 246.19,122.61 246.19,141.17" fill="none" id="CalculatorView-to-CalculatorController" style="stroke:#181818;stroke-width:1;"/><polygon fill="#181818" points="246.19,147.17,250.19,138.17,246.19,142.17,242.19,138.17,246.19,147.17" style="stroke:#181818;stroke-width:1;"/></g><!--SRC=[bOyn3i8m34Ntdi9Z4Sq5Ch3q00n8x6uIGIGhHguB0-Bk59M4KbL2UFgIl_t-TuHz3osI6mYL1UuLZBD5xskqu7deA3JGPRd9OhBrGwU2Jdzu7rNb5g2MameJXOmqhkpip3TnpfWyXVqb26haL7DM5WugCPqQ-3l1COPROPSqTZNZkwsYQ3q-lNBqhvUhTOpPpVClWD_RpzaJ]--></g></svg>